<svg xmlns="http://www.w3.org/2000/svg" width="300" height="300" viewBox="0 0 300 300">
    <rect width="100%" height="100%" fill="#DDDDDD"/>
    <path fill="#999999"
          d="M73.735 136.565h3.55v21.69h-2.07q-.48 0-.8-.16-.32-.16-.62-.53l-11.33-14.46q.09.99.09 1.83v13.32h-3.55v-21.69h2.11q.26 0 .44.02.19.03.33.09.14.07.28.2t.3.34l11.37 14.52q-.04-.53-.07-1.04-.03-.51-.03-.94v-13.19Zm14.61 6.06q1.71 0 3.11.56 1.4.55 2.4 1.57.99 1.02 1.53 2.49.55 1.47.55 3.29 0 1.83-.55 3.3-.54 1.46-1.53 2.5-1 1.03-2.4 1.59-1.4.55-3.11.55-1.73 0-3.14-.55-1.41-.56-2.41-1.59-1-1.04-1.54-2.5-.55-1.47-.55-3.3 0-1.82.55-3.29.54-1.47 1.54-2.49 1-1.02 2.41-1.57 1.41-.56 3.14-.56Zm0 13q1.92 0 2.84-1.29.92-1.29.92-3.77 0-2.5-.92-3.8-.92-1.3-2.84-1.3-1.96 0-2.89 1.31-.94 1.31-.94 3.79 0 2.47.94 3.77.93 1.29 2.89 1.29Zm33.19-2.49q.33 0 .58.26l1.59 1.73q-1.32 1.63-3.24 2.5-1.93.87-4.63.87-2.42 0-4.34-.82-1.93-.83-3.29-2.3-1.37-1.47-2.1-3.51-.72-2.04-.72-4.45 0-2.45.78-4.48.77-2.04 2.19-3.5 1.42-1.47 3.39-2.29 1.96-.82 4.35-.82 2.36 0 4.2.78 1.84.78 3.13 2.04l-1.35 1.88q-.12.18-.31.31-.18.13-.52.13-.22 0-.46-.12-.24-.13-.53-.32-.28-.18-.66-.41-.37-.22-.87-.41-.49-.19-1.14-.32-.66-.13-1.51-.13-1.45 0-2.66.52-1.21.52-2.08 1.5-.87.99-1.35 2.4-.48 1.42-.48 3.24 0 1.83.52 3.25.51 1.42 1.4 2.4.89.98 2.09 1.49 1.19.52 2.58.52.82 0 1.49-.09.66-.09 1.23-.28.56-.2 1.06-.51.51-.31 1-.75.15-.14.31-.22.17-.09.35-.09Zm11.17-10.51q1.71 0 3.12.56 1.4.55 2.4 1.57.99 1.02 1.53 2.49.54 1.47.54 3.29 0 1.83-.54 3.3-.54 1.46-1.53 2.5-1 1.03-2.4 1.59-1.41.55-3.12.55-1.72 0-3.13-.55-1.41-.56-2.41-1.59-1-1.04-1.54-2.5-.55-1.47-.55-3.3 0-1.82.55-3.29.54-1.47 1.54-2.49 1-1.02 2.41-1.57 1.41-.56 3.13-.56Zm0 13q1.92 0 2.85-1.29.92-1.29.92-3.77 0-2.5-.92-3.8-.93-1.3-2.85-1.3-1.95 0-2.88 1.31-.94 1.31-.94 3.79 0 2.47.94 3.77.93 1.29 2.88 1.29Zm21.38-12.76h2.92l-6.1 15.39h-3.36l-6.11-15.39h3.06q.42 0 .7.19.28.2.37.5l2.97 8.22q.24.72.42 1.41t.31 1.38q.15-.69.33-1.38.18-.69.44-1.41l3.03-8.22q.1-.3.37-.5.27-.19.65-.19Zm7.81 5.93h6.99q0-.73-.2-1.36-.2-.64-.61-1.12-.4-.48-1.02-.76-.63-.27-1.45-.27-1.61 0-2.53.91-.92.92-1.18 2.6Zm9.45 2.23h-9.52q.09 1.19.42 2.05.33.86.87 1.42.54.57 1.28.84.74.28 1.64.28.9 0 1.56-.21.65-.21 1.14-.46.48-.26.85-.47.37-.21.71-.21.47 0 .69.34l1.07 1.36q-.62.72-1.38 1.2-.77.49-1.6.78-.83.3-1.69.41-.87.12-1.68.12-1.6 0-2.98-.53t-2.4-1.57q-1.02-1.04-1.61-2.58-.58-1.54-.58-3.57 0-1.57.51-2.96t1.46-2.41q.95-1.03 2.33-1.63 1.37-.6 3.09-.6 1.46 0 2.69.47 1.23.46 2.11 1.35.89.9 1.39 2.19.5 1.3.5 2.97 0 .84-.18 1.13-.18.29-.69.29Zm6.92-7.23.22 1.74q.72-1.38 1.71-2.17.99-.78 2.34-.78 1.07 0 1.71.46l-.24 2.78q-.07.27-.21.38-.15.11-.39.11-.22 0-.66-.07-.45-.08-.87-.08-.61 0-1.09.18-.48.18-.86.52-.39.34-.68.82-.29.48-.55 1.09v9.48h-3.7v-15.39h2.17q.57 0 .8.2.22.21.3.73Zm19.84-7.23v21.69h-4.05v-21.69h4.05Zm7.97 21.69h-3.71v-15.39h2.27q.72 0 .94.68l.24 1.14q.41-.46.85-.83.44-.37.95-.64.5-.27 1.08-.43.57-.16 1.26-.16 1.46 0 2.4.79.93.79 1.4 2.09.36-.76.9-1.31t1.18-.9q.65-.34 1.38-.5.72-.17 1.46-.17 1.27 0 2.26.39.99.39 1.67 1.14.67.75 1.03 1.83.35 1.08.35 2.48v9.79h-3.71v-9.79q0-1.47-.64-2.22-.65-.74-1.89-.74-.57 0-1.06.2-.49.19-.85.56-.37.36-.58.92-.21.56-.21 1.28v9.79h-3.72v-9.79q0-1.55-.62-2.25-.63-.71-1.83-.71-.81 0-1.5.4-.7.39-1.3 1.09v11.26Zm27.04-8.07q.69 0 1.2-.19t.85-.52q.34-.33.51-.79.17-.47.17-1.02 0-1.14-.68-1.81-.68-.66-2.05-.66-1.36 0-2.04.66-.69.67-.69 1.81 0 .54.18 1.01.17.46.51.8.33.33.85.52t1.19.19Zm4.19 8.76q0-.45-.27-.73-.27-.29-.74-.45-.46-.16-1.08-.23-.63-.07-1.32-.11-.7-.04-1.44-.07-.75-.03-1.45-.12-.62.35-1 .81-.38.47-.38 1.08 0 .4.2.76.2.35.65.6.44.26 1.14.4.71.14 1.73.14 1.03 0 1.78-.15.75-.16 1.24-.44.49-.27.71-.66.23-.38.23-.83Zm-.74-15.56h4.43v1.39q0 .66-.8.81l-1.38.25q.32.79.32 1.74 0 1.14-.46 2.06-.46.93-1.27 1.57-.81.65-1.91 1-1.1.35-2.38.35-.45 0-.87-.05-.42-.04-.82-.12-.72.44-.72.98 0 .47.43.68.42.22 1.13.31.7.09 1.6.11.9.03 1.85.1.94.08 1.84.26.9.19 1.61.6.7.4 1.13 1.1.43.7.43 1.79 0 1.02-.5 1.98-.51.96-1.46 1.71t-2.34 1.21q-1.39.46-3.16.46-1.74 0-3.03-.34-1.29-.34-2.14-.9-.86-.57-1.28-1.3-.42-.73-.42-1.53 0-1.08.66-1.81.65-.73 1.79-1.16-.62-.31-.98-.84-.36-.52-.36-1.38 0-.34.13-.71.13-.37.38-.73.24-.36.62-.68.37-.33.88-.58-1.17-.63-1.83-1.68-.67-1.05-.67-2.46 0-1.14.46-2.06.45-.92 1.27-1.58.82-.65 1.94-.99 1.11-.35 2.43-.35.99 0 1.86.2.87.21 1.59.59Z"/>
</svg>